<?xml version="1.0" standalone="no"?>
<!DOCTYPE svg PUBLIC "-//W3C//DTD SVG 20010904//EN"
 "http://www.w3.org/TR/2001/REC-SVG-20010904/DTD/svg10.dtd">
<svg version="1.0" xmlns="http://www.w3.org/2000/svg"
 width="550.000000pt" height="1180.000000pt" viewBox="0 0 550.000000 1180.000000"
 preserveAspectRatio="xMidYMid meet">

<g transform="translate(0.000000,1180.000000) scale(0.100000,-0.100000)"
fill="#000000" stroke="none">
<path d="M2498 11735 c-2 -2 -34 -6 -73 -9 -95 -8 -153 -14 -195 -20 -19 -3
-51 -8 -71 -11 -20 -2 -49 -9 -64 -15 -14 -5 -30 -8 -35 -5 -4 3 -26 -2 -48
-9 -22 -8 -43 -12 -46 -9 -3 4 -6 1 -6 -5 0 -6 -7 -9 -15 -6 -8 4 -15 1 -15
-7 0 -7 -3 -10 -6 -6 -4 3 -42 -7 -85 -23 -44 -16 -79 -26 -79 -23 0 3 -7 0
-15 -7 -8 -7 -15 -9 -15 -5 0 4 -6 2 -13 -4 -8 -6 -17 -8 -20 -4 -4 3 -7 1 -7
-5 0 -7 -3 -11 -7 -11 -5 1 -11 0 -15 -1 -5 -1 -12 -4 -18 -5 -5 -1 -12 -4
-15 -5 -3 -1 -8 -3 -12 -4 -5 -1 -19 -8 -33 -16 -14 -8 -34 -15 -45 -17 -10
-2 -23 -9 -27 -16 -4 -6 -8 -8 -8 -3 0 5 -7 3 -15 -4 -8 -7 -15 -9 -15 -5 0 5
-8 1 -17 -7 -10 -8 -48 -29 -85 -46 -36 -17 -69 -36 -73 -42 -3 -6 -11 -8 -16
-5 -5 4 -9 1 -9 -4 0 -6 -7 -11 -15 -11 -9 0 -18 -7 -21 -15 -4 -8 -12 -15
-19 -15 -6 0 -24 -11 -39 -25 -14 -13 -26 -21 -26 -17 -1 4 -10 -4 -20 -17
-11 -13 -20 -20 -20 -16 0 12 -105 -97 -126 -130 -10 -16 -24 -34 -31 -38 -7
-4 -24 -30 -38 -57 -14 -27 -35 -60 -49 -73 -27 -27 -268 -501 -272 -535 -1
-12 -16 -52 -33 -88 -17 -36 -28 -70 -25 -75 2 -5 0 -18 -6 -30 -6 -11 -13
-39 -16 -62 -2 -23 -6 -62 -9 -87 -3 -25 -8 -79 -11 -120 -8 -107 -7 -790 0
-950 4 -74 7 -141 6 -147 0 -17 0 24 4 -531 3 -358 0 -496 -8 -503 -27 -23
-86 -58 -86 -51 0 4 -4 2 -8 -4 -4 -6 -28 -21 -54 -33 -27 -13 -48 -27 -48
-32 0 -6 -4 -8 -8 -5 -5 3 -23 -8 -41 -24 -18 -17 -34 -30 -37 -30 -2 0 -12
-8 -22 -17 -10 -10 -40 -36 -66 -58 -28 -24 -59 -63 -76 -95 -27 -54 -32 -109
-17 -210 2 -14 5 -30 5 -37 2 -15 54 1 95 29 15 11 27 16 27 13 0 -3 14 3 30
15 17 12 30 18 30 15 0 -3 12 2 28 12 28 20 81 46 95 47 4 1 11 7 15 13 4 7
17 14 28 16 12 1 32 10 45 18 13 9 34 19 45 23 22 7 22 6 18 -156 -2 -90 -6
-226 -9 -303 -2 -77 -7 -228 -10 -335 -3 -107 -8 -267 -11 -355 -2 -88 -7
-232 -9 -320 -3 -88 -7 -236 -10 -330 -3 -93 -8 -510 -10 -925 -3 -415 -7
-802 -10 -860 -13 -237 -3 -816 19 -1180 3 -41 7 -120 11 -175 3 -55 8 -129
11 -165 3 -36 7 -100 9 -142 2 -43 6 -82 9 -87 7 -11 16 -76 19 -133 1 -21 4
-38 8 -38 3 0 5 -16 4 -35 0 -19 2 -35 5 -35 3 0 6 -8 7 -17 3 -41 12 -94 18
-113 4 -11 8 -35 10 -53 4 -34 11 -68 19 -95 3 -9 8 -34 10 -55 3 -21 8 -42
11 -47 3 -5 7 -22 9 -37 2 -16 10 -48 17 -73 7 -25 12 -48 11 -52 -1 -4 2 -18
7 -31 5 -13 12 -39 15 -58 3 -19 12 -53 20 -76 8 -24 13 -43 11 -43 -2 0 7
-34 20 -75 12 -41 21 -75 18 -75 -3 0 0 -7 7 -15 7 -8 10 -15 6 -15 -3 0 5
-29 19 -65 13 -36 22 -65 18 -65 -3 0 0 -7 7 -15 7 -8 9 -15 5 -15 -4 0 -2 -7
5 -15 7 -8 9 -15 6 -15 -4 0 -1 -10 6 -22 7 -13 13 -25 14 -28 10 -42 103
-147 228 -256 44 -38 412 -224 444 -224 12 0 41 -9 63 -20 22 -12 44 -18 49
-15 5 3 23 -1 40 -10 17 -9 37 -14 43 -12 7 2 27 -2 45 -10 18 -7 37 -11 42
-8 5 3 19 1 31 -5 11 -6 39 -13 62 -16 23 -2 61 -6 84 -8 24 -3 47 -7 52 -10
5 -4 45 -9 88 -12 43 -3 103 -7 133 -10 247 -20 915 -14 1070 10 28 4 111 14
180 21 43 4 85 12 85 15 0 1 11 3 25 4 14 2 43 7 65 11 22 5 48 8 58 9 9 0 17
4 17 9 0 4 4 6 9 3 5 -3 28 1 51 9 23 8 52 15 64 15 11 0 34 7 49 15 16 8 42
16 58 17 16 1 29 5 29 9 0 4 10 10 23 14 30 10 36 12 42 15 3 1 10 4 15 5 6 1
13 4 18 5 4 1 10 2 15 1 4 0 7 4 7 10 0 5 4 8 9 4 5 -3 12 -1 16 5 4 6 11 8
16 5 5 -4 9 -2 9 2 0 5 27 21 60 36 33 15 72 39 86 52 15 14 30 25 34 25 18 0
160 136 160 152 0 5 11 19 24 31 26 25 152 264 143 273 -3 3 2 22 10 42 8 20
17 49 19 64 6 45 13 80 25 133 6 28 13 61 14 75 2 14 8 39 14 55 24 74 34 111
37 130 1 11 10 39 19 63 10 24 15 45 12 49 -4 3 1 19 9 35 8 16 13 35 11 41
-2 7 2 24 9 38 7 14 13 35 12 45 0 10 5 42 11 69 13 54 18 82 25 130 3 17 8
46 11 65 3 19 7 46 9 60 2 14 6 36 10 50 6 24 12 75 21 175 3 28 7 66 9 85 4
35 14 146 22 250 3 30 7 78 10 105 2 28 7 75 9 105 3 30 7 265 9 522 3 257 7
472 11 478 3 5 2 10 -3 10 -5 0 -6 20 -2 45 4 25 4 45 0 45 -4 0 -4 19 -1 42
4 24 5 396 4 828 -4 1099 -7 1360 -16 1360 -5 0 -5 5 -2 11 9 13 12 79 5 79
-7 0 -3 107 5 119 3 6 3 11 -2 11 -4 0 -9 109 -10 243 -1 133 -4 380 -6 549
-2 169 0 313 4 319 4 7 74 -23 206 -89 110 -56 210 -100 221 -99 27 2 44 39
32 71 -5 13 -7 26 -5 28 12 12 10 88 -3 127 -19 57 -88 158 -113 166 -11 4
-19 12 -19 19 0 7 -58 43 -128 79 -70 36 -140 77 -155 90 -26 22 -28 28 -28
108 0 46 0 350 -1 674 0 325 2 637 6 695 9 131 13 183 22 290 10 132 5 326
-12 435 -10 66 -14 92 -19 133 -2 24 -7 47 -10 52 -2 4 -7 25 -10 46 -4 22 -8
47 -11 56 -3 10 -7 29 -10 43 -3 15 -16 56 -30 93 -14 37 -25 68 -24 70 0 1 0
3 -1 5 0 1 -3 13 -5 26 -5 27 -74 193 -83 201 -4 3 -15 23 -26 45 -28 56 -105
165 -116 165 -6 0 -8 4 -4 9 3 6 -4 15 -15 21 -11 6 -18 15 -16 19 3 4 -6 14
-19 21 -13 7 -22 17 -19 21 3 5 -6 14 -20 21 -14 6 -26 17 -26 25 0 7 -7 16
-15 19 -8 4 -13 10 -10 14 3 5 1 11 -5 15 -6 4 -8 10 -6 14 5 7 -61 78 -122
132 -33 29 -622 329 -646 329 -8 0 -47 16 -88 35 -40 19 -79 33 -86 30 -7 -3
-22 0 -32 5 -11 6 -32 12 -47 15 -15 3 -50 9 -78 15 -27 5 -66 12 -85 15 -19
3 -46 7 -60 9 -71 12 -170 24 -255 32 -55 5 -513 13 -517 9z m502 -40 c41 -3
91 -8 110 -10 19 -2 54 -7 77 -9 36 -5 128 -20 188 -31 11 -2 34 -6 52 -8 17
-3 40 -10 50 -16 11 -5 28 -8 39 -5 10 3 28 -2 39 -11 20 -16 19 -16 -5 -10
-14 3 -38 8 -55 10 -16 3 -43 7 -60 10 -87 16 -182 30 -275 40 -194 21 -288
26 -505 27 -163 1 -232 -2 -339 -15 -10 -1 -20 3 -22 8 -3 6 13 11 33 13 66 3
178 14 181 17 5 4 413 -3 492 -10z m-720 -24 c0 -11 -31 -19 -47 -14 -23 8
-14 18 17 20 17 1 30 -2 30 -6z m-100 -22 c0 -4 -7 -6 -15 -3 -8 4 -15 10 -15
15 0 4 7 6 15 3 8 -4 15 -10 15 -15z m30 11 c0 -5 -4 -10 -10 -10 -5 0 -10 5
-10 10 0 6 5 10 10 10 6 0 10 -4 10 -10z m-75 -10 c3 -5 1 -10 -4 -10 -6 0
-11 5 -11 10 0 6 2 10 4 10 3 0 8 -4 11 -10z m780 -4 c97 -5 180 -12 235 -20
19 -3 58 -8 85 -11 48 -6 70 -9 142 -21 18 -3 46 -6 62 -8 15 -2 39 -7 52 -12
25 -8 39 -10 107 -19 31 -4 44 -1 48 9 4 11 32 1 122 -41 153 -72 421 -216
417 -224 -2 -3 25 -22 61 -42 35 -21 64 -41 64 -45 0 -4 15 -16 33 -27 17 -10
42 -28 54 -39 52 -51 80 -74 101 -85 12 -6 22 -15 22 -20 0 -5 21 -30 46 -56
43 -46 79 -109 110 -196 7 -22 11 -39 7 -39 -3 0 0 -6 6 -13 6 -8 8 -17 4 -20
-3 -4 -1 -7 6 -7 7 0 10 -4 7 -9 -3 -5 0 -29 8 -54 8 -25 12 -48 9 -51 -3 -2
0 -14 7 -25 6 -12 13 -38 15 -59 2 -20 7 -48 12 -62 5 -14 8 -40 8 -57 0 -18
2 -33 5 -33 4 0 6 -16 5 -35 0 -19 2 -35 5 -35 3 0 6 -17 7 -37 1 -21 4 -54 7
-73 3 -19 8 -57 11 -85 3 -27 8 -66 11 -85 2 -19 6 -62 9 -95 2 -33 6 -94 10
-135 9 -110 15 -211 20 -335 29 -738 35 -1046 21 -1051 -6 -2 -23 -5 -37 -7
-62 -7 -128 -76 -135 -141 -4 -37 -19 -131 -39 -251 -9 -51 -14 -82 -19 -120
-3 -16 -10 -52 -16 -80 -6 -27 -13 -66 -16 -85 -11 -82 -18 -127 -29 -180 -5
-27 -11 -61 -21 -125 -10 -73 -14 -90 -25 -140 -6 -27 -12 -61 -14 -75 -3 -23
-11 -72 -21 -130 -2 -14 -7 -41 -10 -60 -9 -60 -12 -83 -28 -170 -16 -87 -24
-147 -31 -235 -2 -27 -7 -70 -10 -95 -11 -93 -19 -245 -29 -515 -3 -82 -9
-224 -12 -315 -12 -286 -4 -1639 11 -1925 7 -138 12 -218 20 -275 5 -45 15
-171 18 -242 1 -21 4 -38 7 -38 3 0 6 -17 7 -37 1 -21 5 -56 8 -78 8 -57 13
-102 20 -165 5 -56 10 -92 21 -165 8 -58 10 -73 28 -205 3 -19 8 -51 11 -70 3
-19 8 -53 11 -75 3 -22 8 -51 10 -65 2 -14 6 -38 9 -55 2 -16 9 -57 15 -90 6
-33 13 -73 15 -90 7 -50 10 -60 20 -65 8 -5 25 81 41 205 3 28 7 61 9 75 6 49
15 116 20 150 3 19 8 53 10 75 3 22 7 60 10 85 2 25 7 72 11 105 3 33 8 78 10
100 5 42 12 118 18 195 2 25 4 48 5 51 0 3 30 7 66 8 71 2 69 5 67 -69 -1 -19
-4 -147 -6 -285 -3 -137 -8 -275 -11 -305 -9 -93 -22 -191 -31 -232 -3 -15 -7
-42 -10 -60 -3 -18 -7 -45 -9 -61 -5 -32 -13 -82 -20 -117 -21 -114 -24 -134
-20 -138 2 -3 -1 -14 -6 -25 -6 -11 -13 -34 -15 -51 -9 -62 -11 -72 -23 -109
-7 -21 -15 -48 -17 -60 -2 -12 -8 -44 -14 -72 -12 -54 -17 -81 -25 -135 -2
-19 -7 -48 -10 -65 -8 -51 -16 -127 -21 -185 -2 -30 -6 -68 -9 -85 -3 -16 -7
-45 -9 -63 -2 -18 -10 -47 -16 -63 -7 -16 -10 -32 -7 -36 3 -3 -3 -23 -14 -45
-11 -22 -18 -46 -15 -53 3 -8 -1 -19 -9 -25 -10 -8 -15 -4 -24 21 -6 17 -8 35
-5 40 3 5 0 9 -6 9 -6 0 -9 4 -6 8 3 5 -4 33 -15 62 -11 29 -18 58 -16 64 2 6
-4 33 -15 59 -10 27 -16 53 -13 58 4 5 1 9 -5 9 -6 0 -9 4 -6 9 3 5 -1 26 -10
46 -8 20 -17 53 -19 73 -2 21 -8 49 -14 64 -5 14 -7 29 -4 32 4 3 1 6 -5 6 -6
0 -9 7 -6 15 4 8 2 15 -3 15 -5 0 -10 8 -11 18 -9 71 -20 287 -27 522 -2 74
-7 216 -11 315 -3 99 -7 217 -8 262 0 46 -3 83 -6 83 -3 0 -5 56 -5 125 0 69
-4 125 -8 125 -5 0 -5 5 -1 12 18 29 -9 168 -33 168 -4 0 -9 48 -10 108 -1 59
-5 229 -8 377 -7 349 -15 1193 -15 1520 1 132 1 168 3 218 1 31 -2 57 -6 57
-5 0 -5 5 -1 11 3 6 8 151 10 323 5 394 15 724 29 921 4 44 8 112 10 150 2 39
6 86 9 105 10 57 18 114 17 133 0 9 4 17 9 17 19 0 63 52 67 78 1 15 5 41 7
59 2 17 7 36 10 41 5 9 9 28 21 112 2 14 9 48 15 75 6 28 13 61 15 75 7 49 14
86 30 165 19 87 23 114 30 160 2 17 9 53 15 80 12 56 18 86 24 130 3 17 10 53
16 80 6 28 13 61 15 75 3 14 9 48 15 75 5 28 12 64 15 80 3 17 7 41 10 55 3
14 7 39 9 55 3 17 9 50 14 75 6 32 5 57 -4 82 l-13 37 37 12 c52 16 104 53
126 90 33 55 36 160 7 233 -19 48 -23 99 -26 396 -6 503 -25 893 -50 1055 -3
17 -7 46 -9 65 -8 51 -14 78 -30 129 -9 25 -18 60 -20 76 -9 51 -124 366 -140
384 -9 10 -13 21 -9 24 3 4 1 7 -5 7 -7 0 -12 7 -12 15 0 7 -8 19 -17 24 -10
6 -14 11 -10 11 5 0 -11 18 -35 39 -24 22 -52 48 -63 59 -11 10 -35 27 -52 37
-18 11 -33 23 -33 26 0 4 -28 24 -62 45 -34 21 -69 45 -79 55 -24 24 -311 167
-349 174 -17 3 -55 17 -83 31 -28 15 -62 27 -76 29 -25 3 -37 6 -121 35 -19 7
-47 14 -61 15 -14 2 -35 7 -45 13 -11 6 -30 10 -44 11 -14 0 -38 2 -55 5 -107
16 -203 26 -295 31 -128 8 -360 8 -480 0 -63 -3 -132 -7 -152 -8 -21 -1 -38
-4 -38 -7 0 -3 -17 -6 -37 -7 -54 -3 -109 -10 -134 -18 -12 -4 -33 -8 -48 -10
-45 -5 -146 -22 -146 -25 0 -1 -7 -3 -15 -5 -102 -24 -197 -52 -252 -75 -38
-16 -68 -27 -68 -23 0 3 -6 0 -13 -6 -8 -6 -17 -8 -20 -4 -4 3 -7 1 -7 -6 0
-8 -7 -11 -15 -7 -8 3 -15 2 -15 -2 0 -4 -24 -18 -52 -31 -29 -13 -61 -30 -70
-39 -10 -8 -18 -12 -18 -8 0 4 -20 -7 -44 -24 -25 -16 -49 -30 -55 -30 -6 0
-11 -4 -11 -10 0 -5 -7 -10 -15 -10 -9 0 -18 -7 -21 -15 -4 -8 -10 -12 -15 -9
-5 3 -12 -2 -15 -10 -3 -9 -13 -16 -20 -16 -8 0 -17 -7 -20 -15 -4 -8 -13 -15
-20 -15 -8 0 -17 -7 -20 -15 -4 -8 -9 -13 -14 -10 -4 2 -13 -7 -20 -20 -7 -14
-17 -25 -21 -25 -10 0 -61 -51 -109 -110 -19 -23 -40 -48 -46 -54 -16 -17 -44
-73 -44 -88 0 -7 -14 -42 -30 -77 -17 -36 -32 -76 -34 -90 -2 -14 -11 -42 -19
-62 -9 -20 -14 -39 -11 -41 2 -3 0 -18 -7 -34 -6 -16 -12 -40 -14 -54 -2 -14
-9 -45 -15 -70 -11 -45 -13 -58 -25 -135 -3 -22 -8 -53 -11 -70 -2 -16 -7 -52
-9 -80 -3 -27 -7 -66 -10 -85 -9 -67 -23 -488 -28 -856 -2 -110 -7 -205 -11
-212 -4 -6 -9 -28 -11 -49 -3 -21 -7 -50 -10 -65 -25 -132 -26 -195 -4 -243
25 -56 48 -79 107 -109 l52 -26 -15 -30 c-9 -17 -12 -30 -7 -30 5 0 8 -16 7
-35 0 -19 2 -35 5 -35 3 0 6 -8 7 -17 2 -40 19 -138 23 -138 1 0 3 -11 4 -25
3 -25 13 -84 22 -130 3 -14 7 -39 9 -57 2 -18 6 -42 10 -53 7 -23 16 -85 16
-112 0 -10 4 -18 7 -18 4 0 7 -16 7 -35 -1 -19 1 -35 5 -35 3 0 6 -8 6 -17 1
-10 4 -38 8 -63 4 -25 9 -59 11 -77 2 -18 6 -36 9 -41 3 -6 8 -25 10 -43 3
-19 8 -50 11 -69 4 -19 8 -46 10 -60 2 -14 9 -50 14 -80 6 -30 13 -68 16 -85
3 -16 8 -41 11 -55 5 -22 10 -52 18 -115 4 -32 29 -95 38 -95 14 0 40 -49 44
-85 2 -19 7 -52 9 -72 11 -77 18 -170 19 -250 0 -46 3 -83 6 -83 19 0 16
-1550 -5 -2320 -2 -74 -6 -222 -9 -328 -3 -105 -8 -197 -11 -202 -3 -6 -1 -10
5 -10 6 0 9 -4 5 -10 -5 -9 -8 -65 -20 -435 -4 -128 -10 -189 -20 -212 -10
-21 -17 -79 -21 -175 -2 -79 -7 -179 -9 -223 -5 -79 -9 -155 -19 -390 -3 -66
-8 -165 -10 -220 -12 -250 -17 -356 -20 -435 -2 -47 -9 -98 -16 -115 -6 -16
-13 -42 -15 -57 -2 -15 -10 -40 -18 -55 -8 -15 -12 -33 -10 -40 2 -6 -5 -30
-17 -53 -12 -23 -19 -47 -17 -53 2 -7 -4 -29 -15 -50 -11 -21 -17 -44 -15 -50
2 -7 -5 -32 -16 -57 -10 -25 -20 -57 -21 -73 -1 -15 -10 -35 -20 -45 -9 -9
-16 -12 -15 -7 1 6 0 12 -1 15 -1 3 -4 19 -6 35 -3 30 -11 70 -14 70 -1 0 -3
14 -5 30 -2 17 -7 41 -10 55 -3 14 -8 41 -10 61 -2 20 -9 49 -15 65 -7 16 -13
45 -16 64 -4 36 -11 75 -14 75 -2 0 -9 35 -14 73 -3 18 -10 48 -16 68 -7 19
-10 38 -7 41 3 2 -1 22 -8 43 -7 21 -11 41 -8 44 4 3 2 6 -3 6 -5 0 -10 10
-11 23 -4 55 -9 77 -16 77 -5 0 -6 4 -3 8 3 5 -4 44 -15 88 -11 43 -22 93 -24
109 -2 17 -6 44 -9 60 -26 156 -35 223 -41 300 -3 33 -7 74 -10 90 -2 17 -7
68 -10 115 -2 47 -7 119 -10 160 -2 41 -7 122 -10 180 -4 58 -8 107 -10 109
-3 2 0 12 6 22 5 11 6 19 2 19 -10 0 -8 119 2 128 11 11 124 11 131 0 4 -6 8
-42 9 -82 2 -39 6 -98 9 -131 6 -57 13 -154 21 -295 4 -64 10 -128 20 -245 3
-33 8 -85 10 -115 2 -30 7 -73 10 -95 4 -22 6 -50 6 -62 0 -13 3 -23 8 -23 9
0 29 46 30 70 0 8 5 38 11 65 14 59 19 88 25 132 2 18 6 37 9 42 3 5 8 26 12
47 3 22 8 51 10 67 2 15 6 39 9 55 3 15 7 41 10 57 2 17 14 82 25 145 11 63
22 135 24 160 3 25 9 68 14 95 5 28 10 57 11 65 1 8 3 29 6 45 2 17 6 46 9 65
2 19 7 53 10 75 3 22 8 63 12 90 3 28 7 64 10 80 11 80 20 212 30 420 2 61 7
144 9 185 12 213 18 403 21 775 2 226 3 419 3 430 0 11 0 47 0 80 5 235 5 705
1 705 -3 0 -6 57 -7 128 -2 139 -9 250 -19 327 -4 28 -7 67 -8 87 -1 21 -5 38
-9 38 -5 0 -6 4 -3 9 4 5 2 21 -4 36 -5 14 -12 51 -15 83 -4 31 -8 65 -11 75
-6 18 -10 53 -19 137 -20 192 -19 187 -28 240 -4 19 -9 55 -12 80 -2 25 -8 65
-11 90 -4 25 -7 62 -8 82 0 21 -3 38 -6 38 -3 0 -6 17 -7 38 -2 40 -7 77 -22
162 -5 30 -7 58 -4 63 2 4 0 7 -4 7 -5 0 -8 16 -8 35 1 19 -1 35 -4 35 -4 0
-7 17 -8 38 -3 52 -10 108 -18 132 -8 24 -15 80 -18 133 -1 20 -6 37 -11 37
-5 0 -6 3 -3 7 4 3 2 12 -4 20 -6 7 -9 13 -6 13 4 0 -5 16 -18 36 -14 20 -25
44 -26 53 -1 35 -10 65 -20 72 -6 3 -9 8 -7 11 4 7 -59 59 -74 62 -53 9 -53
10 -50 113 1 54 4 152 7 218 3 66 7 174 10 240 4 109 7 169 20 395 3 41 7 113
9 160 4 78 13 179 22 255 2 17 6 80 8 140 5 109 11 173 22 250 3 22 7 56 9 75
10 79 18 133 30 203 10 53 15 82 19 117 3 19 10 58 16 85 7 28 14 63 16 78 2
15 8 36 14 47 5 10 10 28 10 39 0 11 6 26 13 33 19 21 62 89 91 146 14 29 30
52 36 52 5 0 19 18 31 40 12 22 25 38 27 35 3 -2 17 4 32 15 16 11 31 20 35
20 4 0 20 9 36 21 16 11 29 17 29 12 0 -4 5 0 11 10 5 9 17 17 24 17 8 0 15 5
15 11 0 5 4 8 9 4 6 -3 13 0 18 7 4 7 22 20 38 28 17 8 34 21 38 28 5 7 12 10
18 7 5 -4 9 -1 9 4 0 6 6 11 14 11 8 0 17 7 20 16 3 8 10 12 16 9 6 -3 13 1
16 9 3 9 12 16 20 16 7 0 17 7 22 16 5 9 12 15 16 13 11 -3 156 102 156 113 0
5 4 7 9 4 5 -3 14 1 21 9 7 8 16 13 20 10 5 -3 11 -1 15 5 4 6 11 8 16 5 5 -4
9 -1 9 6 0 7 3 9 7 6 3 -4 12 -2 20 4 7 6 13 9 13 5 0 -3 30 5 66 19 78 29 74
29 74 11 0 -22 21 -24 65 -9 22 8 63 19 90 25 52 10 62 12 135 23 143 22 173
26 263 29 48 2 89 5 92 7 4 5 267 1 390 -5z m70 -60 c127 -7 201 -13 245 -21
19 -3 55 -8 80 -10 25 -2 57 -8 71 -13 15 -6 30 -8 33 -5 3 4 16 2 29 -4 26
-12 102 -33 137 -37 14 -2 45 -13 70 -25 25 -11 54 -21 65 -21 23 0 410 -193
470 -233 113 -77 155 -111 233 -189 72 -72 82 -84 75 -92 -4 -3 -1 -6 4 -6 10
0 60 -116 68 -158 2 -9 4 -18 4 -19 1 -2 1 -5 0 -9 0 -3 7 -16 15 -30 9 -13
14 -24 12 -24 -3 0 9 -36 25 -80 16 -44 27 -80 24 -80 -2 0 5 -25 15 -55 10
-30 17 -55 14 -55 -3 0 -2 -5 2 -12 4 -7 9 -21 10 -33 1 -11 5 -33 9 -50 20
-95 34 -269 38 -452 1 -57 4 -103 7 -103 5 0 6 -29 14 -560 6 -327 7 -345 33
-416 17 -45 18 -63 9 -134 -7 -63 -42 -97 -134 -132 -45 -17 -46 -17 -61 5
-20 30 -151 157 -162 157 -4 0 -22 13 -38 29 -35 34 -400 221 -431 221 -11 0
-39 9 -61 21 -22 11 -46 18 -52 16 -7 -2 -35 7 -63 19 -29 13 -54 21 -57 18
-2 -2 -17 0 -33 7 -16 6 -40 12 -54 14 -14 2 -47 9 -75 15 -71 17 -109 23
-210 35 -27 3 -68 8 -90 11 -228 29 -764 34 -980 8 -22 -2 -58 -6 -80 -8 -56
-6 -135 -16 -165 -22 -14 -3 -41 -7 -61 -9 -20 -2 -47 -9 -61 -14 -14 -5 -28
-7 -31 -4 -3 3 -21 0 -40 -6 -19 -7 -43 -13 -53 -15 -11 -2 -39 -9 -64 -16
-25 -7 -54 -13 -65 -15 -11 -2 -40 -10 -64 -19 -25 -9 -58 -19 -75 -22 -17 -3
-34 -10 -38 -17 -4 -7 -8 -8 -8 -4 0 5 -6 5 -12 0 -7 -4 -21 -9 -32 -10 -10
-2 -31 -12 -47 -24 -16 -11 -29 -17 -29 -14 0 3 -12 -2 -27 -12 -16 -11 -47
-28 -70 -38 -24 -11 -43 -23 -43 -27 0 -5 -6 -8 -14 -8 -7 0 -24 -10 -38 -22
-13 -13 -36 -29 -50 -37 -14 -7 -40 -26 -57 -41 -16 -15 -32 -26 -35 -23 -2 3
-10 -5 -16 -17 -6 -12 -14 -20 -16 -17 -3 2 -30 -20 -61 -49 -31 -30 -65 -54
-77 -54 -12 0 -45 14 -74 31 -79 45 -94 92 -78 241 2 26 7 52 10 57 3 5 8 26
12 47 3 22 8 53 10 69 3 17 7 100 9 185 23 849 23 846 51 1060 3 25 7 57 9 71
1 15 6 36 10 49 7 22 13 51 20 100 2 14 8 37 13 51 6 15 8 29 6 32 -3 3 1 20
9 38 7 19 12 39 10 46 -2 6 7 34 21 62 14 28 26 60 26 72 0 25 98 219 111 219
5 0 18 15 29 33 11 17 20 28 20 24 0 -4 22 14 48 40 67 66 147 134 179 153 15
8 36 23 47 33 11 9 24 17 29 17 5 0 22 9 38 21 16 11 29 17 29 14 0 -3 12 2
28 12 28 20 81 46 95 47 4 1 12 8 17 16 5 8 10 11 10 7 0 -5 6 -5 13 0 6 4 21
9 32 10 10 2 30 10 42 18 13 9 23 13 23 10 0 -2 36 9 80 25 44 16 80 28 80 25
0 -2 19 3 43 11 23 8 58 17 77 20 19 3 43 7 52 10 29 9 62 15 95 19 18 2 42 6
53 10 24 8 80 15 133 18 20 1 37 4 37 7 0 3 17 6 38 7 20 0 109 4 197 8 88 4
161 7 162 8 2 3 92 -1 218 -7z m-1561 -191 c-4 -8 -12 -15 -19 -15 -7 0 -16
-7 -19 -16 -3 -8 -10 -13 -15 -10 -5 3 -11 -1 -15 -9 -3 -8 -12 -15 -21 -15
-8 0 -15 -4 -15 -10 0 -5 -3 -9 -7 -8 -5 2 -28 -11 -53 -28 -57 -40 -118 -74
-130 -74 -6 0 -10 5 -10 11 0 5 5 7 10 4 6 -3 13 1 16 9 3 9 10 16 15 16 4 0
20 11 35 25 15 14 33 25 40 25 8 0 14 5 14 10 0 6 5 10 10 10 6 0 28 12 50 26
43 28 101 61 112 63 4 0 5 -6 2 -14z m3318 -632 c7 -16 21 -41 32 -58 12 -16
20 -31 19 -32 -2 -2 9 -28 23 -59 36 -79 54 -131 47 -138 -4 -3 -1 -6 6 -6 8
0 11 -7 7 -15 -3 -8 0 -15 6 -15 6 0 9 -3 5 -6 -3 -3 3 -31 14 -62 11 -31 22
-70 25 -87 2 -16 7 -38 10 -48 6 -19 11 -47 18 -104 3 -18 7 -42 11 -53 9 -27
16 -85 30 -250 10 -108 5 -249 -20 -555 -3 -27 -7 -234 -9 -459 -2 -225 -9
-413 -14 -418 -5 -5 -15 -6 -23 -3 -11 4 -14 39 -16 178 -1 94 -5 251 -8 347
-3 96 -8 247 -11 335 -2 88 -7 194 -9 235 -2 41 -6 124 -10 183 -3 60 -8 127
-11 150 -2 23 -6 74 -9 112 -2 39 -7 88 -10 110 -3 22 -8 60 -10 85 -9 90 -15
132 -20 141 -3 4 -8 35 -11 66 -7 83 -11 108 -23 146 -7 19 -11 39 -9 43 2 8
-5 40 -32 143 -5 19 -7 38 -4 43 3 4 0 8 -5 8 -6 0 -10 3 -10 8 1 4 1 9 -1 12
-1 3 -3 15 -6 28 -6 31 14 28 28 -5z m-3999 -176 c-8 -13 -24 -93 -24 -121 0
-27 -27 -76 -42 -76 -15 0 -100 -167 -92 -180 6 -10 -15 -60 -25 -60 -10 0 5
80 23 121 9 20 14 39 11 41 -2 3 17 49 42 102 25 54 47 107 48 119 2 12 13 42
26 67 22 42 23 44 31 21 5 -12 6 -28 2 -34z m-49 -258 c-1 -24 -12 -116 -20
-174 -8 -57 -14 -130 -18 -228 -3 -54 -6 -101 -8 -103 -2 -2 -15 -5 -27 -6
-19 -2 -26 4 -36 32 -12 34 -12 166 -1 220 21 102 27 122 35 139 6 10 7 21 4
25 -10 9 49 127 61 123 6 -2 11 -15 10 -28z m-114 -544 c6 -7 21 -10 35 -7 21
4 25 0 26 -19 1 -13 0 -28 -1 -34 -4 -21 -19 -232 -25 -360 -2 -49 -7 -128
-10 -175 -7 -103 -23 -505 -27 -685 -2 -70 -9 -94 -28 -95 -3 0 -6 107 -6 238
-1 130 -5 309 -9 397 -12 237 -12 787 -1 810 8 17 11 15 23 -19 7 -21 17 -44
23 -51z m2370 -700 c140 -6 173 -8 305 -20 165 -15 201 -19 270 -35 28 -6 61
-12 75 -14 14 -2 38 -9 54 -15 16 -6 31 -9 34 -7 2 3 20 -1 39 -9 20 -8 44
-15 55 -15 10 0 36 -9 57 -20 21 -10 41 -16 45 -13 3 3 37 -8 75 -26 39 -18
82 -34 97 -37 35 -6 264 -123 264 -134 0 -5 21 -21 48 -37 26 -15 56 -35 67
-45 70 -65 135 -129 135 -133 0 -3 14 -24 30 -47 17 -22 30 -45 30 -50 0 -15
-21 -8 -43 16 -26 28 -394 219 -407 211 -5 -3 -36 8 -69 25 -33 16 -69 30 -80
30 -11 0 -40 9 -66 20 -26 11 -51 18 -56 15 -5 -3 -19 0 -31 6 -13 7 -39 16
-58 20 -19 5 -57 13 -85 20 -27 6 -62 13 -77 14 -14 2 -32 6 -39 11 -7 4 -24
9 -38 11 -14 2 -39 5 -56 7 -16 3 -44 7 -62 10 -18 2 -40 7 -50 10 -10 3 -43
8 -73 12 -30 3 -66 7 -80 9 -14 2 -52 6 -85 10 -33 3 -73 8 -90 10 -209 26
-698 21 -905 -10 -19 -2 -53 -7 -75 -10 -22 -2 -62 -9 -90 -14 -27 -5 -53 -7
-57 -5 -5 3 -8 1 -8 -4 0 -5 -15 -10 -32 -11 -18 -2 -41 -3 -50 -4 -10 -1 -18
-5 -18 -10 0 -4 -4 -6 -9 -2 -5 3 -32 -4 -59 -14 -27 -11 -52 -17 -55 -14 -3
3 -22 0 -42 -7 -20 -7 -44 -13 -53 -15 -9 -2 -17 -4 -17 -5 0 -1 -8 -3 -17 -5
-30 -6 -273 -97 -285 -107 -7 -6 -13 -7 -13 -3 0 4 -7 2 -15 -5 -8 -7 -15 -9
-15 -5 0 4 -7 2 -15 -5 -8 -7 -15 -9 -15 -4 0 5 -4 4 -8 -1 -7 -11 -19 -17
-124 -64 -37 -17 -72 -31 -78 -31 -5 0 -10 -4 -10 -10 0 -5 -3 -9 -8 -8 -10 3
-81 -43 -114 -75 -16 -14 -28 -25 -29 -24 -12 33 -4 51 42 97 27 27 52 50 55
50 2 0 20 16 40 35 19 19 39 35 43 35 5 0 11 7 15 15 3 8 12 15 20 15 7 0 17
7 20 16 3 8 10 12 16 9 5 -3 10 -1 10 5 0 6 7 13 16 17 9 3 28 16 41 29 14 13
29 21 34 19 4 -3 11 1 16 8 4 8 34 26 65 40 31 15 60 32 63 37 4 6 11 8 16 5
5 -4 9 -1 9 4 0 6 6 11 13 11 7 0 29 9 50 20 20 11 47 22 60 24 12 3 23 5 25
5 1 1 3 1 5 1 1 0 28 8 59 19 31 11 72 22 90 25 18 3 52 12 76 20 23 8 42 13
42 11 0 -3 11 0 26 5 14 6 43 12 66 15 22 3 44 7 48 10 5 3 28 8 52 10 63 8
100 13 128 19 14 4 54 9 90 11 36 3 79 8 95 10 17 2 79 7 140 10 60 4 111 7
112 8 3 3 235 -1 383 -8z m-100 -209 c151 -6 257 -13 310 -21 19 -2 62 -7 95
-11 73 -7 111 -12 148 -19 31 -6 66 -12 117 -19 19 -3 55 -11 80 -17 25 -5 56
-12 70 -14 14 -2 38 -8 53 -14 16 -6 32 -9 37 -6 4 3 24 -2 44 -10 20 -8 36
-13 36 -10 0 2 22 -4 49 -15 27 -10 51 -17 53 -14 3 2 27 -5 54 -17 27 -12 61
-23 76 -25 15 -2 59 -19 98 -39 38 -19 78 -35 88 -35 23 0 208 -96 233 -121
10 -10 36 -27 58 -38 61 -31 78 -103 51 -211 -11 -44 -14 -58 -25 -134 -3 -21
-7 -42 -10 -46 -3 -4 -7 -25 -10 -46 -4 -22 -8 -50 -11 -64 -2 -14 -6 -38 -9
-55 -3 -16 -10 -52 -16 -80 -5 -27 -12 -61 -15 -75 -8 -49 -16 -95 -18 -115
-2 -11 -6 -29 -9 -40 -7 -20 -15 -64 -21 -117 -2 -14 -7 -31 -10 -36 -3 -5 -8
-27 -12 -48 -3 -22 -7 -48 -9 -59 -2 -11 -6 -34 -9 -52 -2 -18 -8 -42 -11 -54
-4 -12 -9 -35 -11 -50 -2 -16 -6 -44 -9 -62 -3 -17 -7 -42 -9 -54 -5 -41 -38
-101 -58 -106 -10 -3 -34 1 -52 8 -19 8 -36 12 -39 9 -3 -3 -19 2 -36 10 -17
9 -43 18 -58 20 -16 1 -44 8 -63 14 -85 26 -126 37 -133 34 -4 -1 -16 2 -27 8
-11 6 -32 12 -47 14 -90 14 -106 17 -114 22 -5 3 -24 7 -42 9 -18 2 -48 7 -67
10 -19 4 -47 8 -62 11 -16 2 -41 6 -58 9 -52 9 -93 14 -150 20 -30 4 -68 8
-85 10 -16 2 -56 6 -87 9 -32 2 -62 7 -68 11 -5 3 -10 1 -10 -5 0 -7 -6 -8
-18 -1 -11 6 -27 10 -38 10 -16 0 -310 7 -504 12 -54 1 -240 -9 -310 -16 -19
-2 -69 -7 -110 -10 -86 -6 -139 -13 -149 -20 -4 -2 -39 -7 -77 -10 -38 -4 -72
-9 -75 -11 -6 -3 -58 -13 -102 -19 -15 -2 -43 -9 -63 -15 -19 -7 -38 -10 -41
-7 -3 3 -34 -5 -68 -18 -35 -13 -66 -21 -68 -18 -3 3 -21 0 -41 -7 -19 -6 -46
-13 -61 -16 -15 -3 -50 -14 -78 -25 -29 -11 -70 -22 -92 -25 -22 -4 -42 -7
-45 -7 -3 -1 -14 2 -26 6 -30 10 -50 80 -69 235 -2 18 -9 48 -15 68 -7 19 -10
38 -7 41 3 3 1 17 -4 31 -5 14 -12 41 -14 61 -2 20 -6 47 -9 61 -3 14 -7 41
-9 60 -3 19 -7 42 -10 50 -9 21 -28 143 -30 188 0 6 -3 12 -7 12 -3 0 -5 16
-5 35 1 19 -1 35 -5 35 -3 0 -6 8 -7 18 0 9 -4 37 -8 62 -4 25 -9 57 -10 71
-2 15 -6 37 -10 50 -4 13 -9 35 -11 49 -2 22 -5 44 -19 128 -2 12 -6 30 -9 40
-27 92 -3 162 70 213 24 16 44 26 44 22 0 -4 5 0 11 10 5 9 15 17 21 17 6 0
41 14 77 32 36 17 68 32 71 33 3 0 16 7 30 15 14 8 28 15 33 16 4 1 8 2 10 3
1 2 13 5 27 7 13 2 28 10 32 17 4 6 8 8 8 3 0 -5 6 -4 13 2 6 6 14 11 17 11
36 8 50 15 50 23 0 5 4 7 8 4 5 -3 44 8 88 25 43 16 88 31 99 33 11 3 22 5 25
6 3 2 8 2 12 1 4 0 26 6 49 14 23 9 44 13 47 11 2 -3 27 4 54 15 28 11 56 18
62 16 6 -2 21 0 34 4 23 9 40 12 117 24 22 3 47 8 55 10 14 4 34 7 130 21 72
10 129 14 259 19 74 3 136 7 137 8 3 2 71 1 264 -7z m-2277 -753 c-1 -137 -3
-252 -3 -258 0 -5 -6 -1 -12 10 -12 21 -16 101 -5 128 4 10 3 17 -1 17 -4 0
-6 71 -6 158 2 197 2 192 17 192 9 0 12 -55 10 -247z m100 217 c15 -10 28 -21
27 -25 -1 -4 4 -11 11 -16 20 -12 13 -174 -9 -215 -5 -11 -12 -35 -15 -54 -4
-19 -12 -39 -20 -45 -7 -5 -22 -22 -31 -37 -10 -16 -22 -28 -26 -28 -5 0 -7
101 -7 225 2 250 -2 238 70 195z m4211 11 c5 -7 7 -37 6 -81 -2 -74 10 -372
15 -380 3 -5 -3 -10 -14 -10 -12 0 -21 7 -21 15 0 7 -7 18 -16 23 -9 5 -16 13
-16 18 -1 5 -7 18 -14 29 -7 12 -16 32 -18 45 -2 14 -5 25 -6 25 -6 0 -12 56
-14 145 -5 138 11 174 76 179 9 0 19 -3 22 -8z m81 -264 c1 -147 0 -267 -4
-267 -19 1 -27 21 -28 75 -9 321 -11 450 -7 457 3 5 13 8 22 6 14 -3 16 -35
17 -271z m-214 101 c1 -7 2 -38 4 -68 3 -48 10 -95 15 -95 1 0 3 -10 6 -23 2
-13 10 -33 16 -45 7 -12 11 -25 10 -29 -1 -5 3 -8 8 -8 6 0 15 -11 20 -25 5
-14 13 -25 18 -25 5 0 14 -10 19 -23 9 -19 5 -36 -22 -95 -19 -40 -39 -72 -45
-72 -6 0 -26 -16 -44 -35 -19 -19 -37 -35 -40 -35 -4 0 -25 -18 -45 -39 -28
-29 -41 -37 -49 -29 -7 7 -8 17 -1 29 5 10 12 40 14 66 3 26 8 62 12 78 4 17
7 37 9 45 1 8 5 33 9 55 4 22 8 51 10 65 3 14 11 61 20 105 18 99 26 147 33
203 1 6 7 12 12 12 6 0 10 -6 11 -12z m-3975 -46 c1 -6 2 -13 4 -14 5 -7 24
-122 34 -210 2 -21 7 -47 11 -58 8 -24 15 -80 18 -132 1 -21 4 -38 7 -38 3 0
5 -15 5 -32 0 -18 3 -44 7 -56 5 -13 6 -28 3 -32 -6 -10 -23 2 -83 58 -19 17
-39 32 -44 32 -5 0 -7 4 -4 9 3 5 -10 16 -30 26 -35 16 -58 53 -68 107 -3 13
-5 23 -6 23 -1 0 -3 13 -4 30 -1 20 5 37 20 50 45 42 95 164 96 233 0 16 5 22
17 20 9 -2 17 -9 17 -16z m-179 -309 c-4 -3 -2 -12 4 -20 6 -7 9 -13 5 -13 -3
0 3 -23 14 -52 19 -51 19 -52 0 -95 -10 -24 -17 -43 -14 -43 13 0 -25 -28 -61
-44 -22 -10 -47 -25 -57 -33 -9 -8 -22 -15 -30 -17 -7 -1 -18 -4 -23 -8 -6 -4
-65 -34 -130 -68 -66 -34 -123 -67 -127 -73 -4 -7 -8 -8 -8 -3 0 5 -7 3 -15
-4 -8 -7 -15 -9 -15 -4 0 5 -4 5 -8 -1 -12 -17 -52 -36 -63 -30 -12 8 -2 121
13 149 12 23 63 76 73 76 3 0 21 16 41 35 19 19 39 35 43 35 5 0 12 7 15 16 3
8 10 13 15 10 5 -3 11 1 15 9 3 8 12 15 21 15 8 0 15 5 15 10 0 6 12 15 26 20
15 6 40 20 55 31 16 11 29 17 29 14 0 -4 11 3 25 14 14 11 39 22 55 26 16 4
32 15 35 25 5 17 20 25 49 29 5 0 6 -2 3 -6z m4444 -103 c73 -38 135 -74 138
-78 3 -5 39 -28 79 -52 40 -23 71 -45 68 -47 -2 -2 7 -15 20 -28 25 -25 71
-117 74 -150 1 -11 2 -34 1 -52 l-1 -32 -262 134 c-260 132 -263 134 -265 167
-1 17 -8 37 -16 43 -21 15 -23 34 -7 80 13 39 15 45 18 73 1 6 6 12 11 12 6 0
69 -31 142 -70z m-4353 -73 c10 -12 10 -229 -3 -1067 -3 -201 -6 -535 -7 -742
-1 -208 -4 -378 -6 -378 -17 0 -120 65 -116 72 10 15 10 78 1 78 -4 0 -5 5 -1
11 4 6 8 334 10 728 5 1055 7 1126 22 1124 6 -2 12 1 12 6 0 5 8 12 18 15 13
5 18 17 19 49 0 23 3 56 6 72 2 17 5 33 6 38 2 11 28 8 39 -6z m4148 -25 c12
-9 24 -24 27 -33 5 -16 -5 -81 -18 -111 -5 -13 1 -21 27 -34 19 -9 35 -21 35
-28 4 -69 4 -65 4 -1316 0 -575 -2 -1218 -6 -1430 -12 -811 -16 -1043 -18
-1300 l-3 -265 -64 0 -65 0 3 50 c5 88 13 774 23 1840 0 6 0 39 0 75 -1 124 7
2555 8 2563 2 12 25 7 47 -11z m-4081 -728 c0 -384 -3 -707 -8 -716 -4 -10 -4
-18 0 -18 4 0 7 -44 6 -98 -7 -470 -7 -484 13 -495 11 -6 25 -19 32 -29 7 -10
31 -27 52 -38 21 -11 43 -26 47 -33 4 -7 26 -24 48 -37 22 -13 48 -32 58 -42
10 -10 21 -18 25 -18 4 0 6 39 4 88 -2 48 -4 165 -5 259 -1 95 -4 173 -7 173
-3 0 -6 87 -8 193 -1 105 -5 221 -7 257 -3 36 -7 93 -9 128 -2 35 -6 66 -9 69
-8 8 4 33 15 33 6 0 8 -7 4 -15 -3 -8 -2 -15 2 -15 4 0 8 -17 8 -38 1 -20 4
-55 8 -77 8 -53 18 -234 20 -362 0 -57 3 -103 6 -103 8 0 -1 -817 -9 -840 -1
-3 -6 3 -12 13 -5 9 -20 17 -33 17 -13 0 -60 18 -105 40 -45 22 -97 43 -114
45 l-32 5 -2 -662 c-4 -1032 -4 -1385 0 -1486 1 -51 -1 -98 -5 -105 -4 -6 -8
-10 -9 -7 -4 21 -11 129 -12 197 -1 46 -4 83 -7 83 -10 0 -14 608 -7 938 1 56
-2 102 -6 102 -5 0 -5 5 -1 12 4 6 8 282 9 614 2 331 6 607 9 613 4 6 3 11 -2
11 -5 0 -6 20 -2 45 4 25 3 45 -2 45 -5 0 -6 4 -3 10 3 5 8 283 10 617 5 540
12 1209 14 1301 1 22 5 32 14 29 9 -3 12 -152 12 -703z m4000 -423 l-1 -1064
-30 -16 c-17 -9 -51 -25 -77 -36 -26 -10 -47 -22 -47 -25 0 -3 -9 -6 -21 -7
-11 -1 -33 -10 -47 -20 -15 -9 -29 -18 -32 -19 -3 0 -23 -9 -44 -18 -30 -13
-41 -15 -46 -5 -4 6 -6 64 -4 128 2 64 6 184 9 266 10 321 24 639 31 720 11
130 13 162 19 215 3 30 8 69 10 85 2 17 7 48 9 70 6 41 13 88 22 140 3 17 7
41 9 55 6 34 12 66 25 130 12 58 16 85 22 138 2 17 10 38 17 45 11 10 12 8 6
-12 -4 -13 -9 -47 -11 -75 -1 -28 -6 -67 -9 -86 -11 -61 -21 -129 -29 -195 -3
-27 -8 -61 -11 -75 -3 -14 -8 -47 -11 -75 -3 -27 -7 -61 -10 -75 -5 -35 -14
-100 -18 -131 -1 -14 -6 -31 -10 -37 -4 -7 -2 -12 4 -12 7 0 8 -6 2 -17 -5
-10 -8 -47 -7 -83 0 -36 -3 -73 -7 -82 -6 -12 -5 -18 2 -18 6 0 8 -5 4 -11 -4
-6 -8 -66 -10 -133 -2 -66 -6 -173 -9 -236 -2 -63 -7 -176 -9 -250 -3 -74 -7
-170 -10 -212 -4 -52 -2 -78 6 -78 5 0 32 16 58 35 26 19 52 35 58 35 5 0 12
7 16 15 3 8 12 15 21 15 8 0 15 3 15 8 0 4 13 13 30 20 16 7 42 25 58 40 l28
27 -1 995 c-1 658 2 1002 8 1015 10 19 11 19 17 -5 4 -14 6 -504 5 -1089z
m-3937 1071 c13 -9 19 -38 27 -127 5 -53 9 -82 24 -185 5 -36 13 -90 16 -120
4 -30 9 -68 11 -85 3 -16 7 -50 9 -75 3 -25 7 -62 10 -82 3 -21 8 -55 11 -75
2 -21 7 -58 9 -83 5 -50 12 -113 21 -180 17 -127 25 -273 27 -477 1 -95 4
-173 7 -173 3 0 5 -84 5 -188 0 -103 3 -197 7 -209 12 -36 0 -55 -25 -41 -12
6 -26 17 -30 25 -4 7 -26 22 -47 33 -21 11 -43 26 -47 34 -4 7 -22 22 -39 32
l-31 19 3 970 c1 534 3 976 3 983 1 14 10 15 29 4z m-220 -19 c-2 -9 -14 -18
-28 -20 -13 -2 -27 -7 -30 -11 -3 -4 -23 -16 -45 -27 -22 -11 -52 -28 -67 -38
-16 -10 -28 -15 -28 -12 0 3 -12 -2 -27 -13 -16 -10 -44 -24 -63 -32 -19 -7
-39 -18 -45 -24 -5 -6 -19 -13 -30 -14 -11 -2 -32 -13 -47 -24 -16 -10 -28
-16 -28 -13 0 3 -13 -3 -29 -14 -31 -22 -51 -27 -51 -12 0 5 13 14 30 20 16 5
30 15 30 21 0 6 4 9 9 5 5 -3 12 -1 16 5 4 6 10 8 15 5 4 -3 10 1 13 8 3 7 24
19 46 26 23 7 45 19 48 27 3 7 9 12 13 9 5 -3 11 -1 15 5 4 6 10 8 15 5 4 -3
10 1 13 9 3 8 19 17 36 21 17 4 31 11 31 16 0 5 3 9 8 8 15 -2 52 14 52 23 0
5 4 7 9 3 5 -3 13 0 16 6 7 10 81 47 98 48 5 1 7 -6 5 -16z m4096 -985 c1
-537 -2 -974 -5 -972 -4 2 -9 -3 -13 -11 -3 -8 -12 -15 -20 -15 -7 0 -16 -7
-20 -15 -3 -8 -12 -15 -21 -15 -8 0 -15 -4 -15 -10 0 -5 -7 -10 -15 -10 -7 0
-19 -8 -24 -17 -6 -10 -11 -14 -11 -9 0 4 -15 -3 -33 -17 -40 -31 -55 -24 -51
23 4 40 12 221 20 425 3 77 7 192 10 255 2 63 6 167 8 230 2 64 6 125 9 135 4
11 9 45 13 75 3 30 8 66 10 80 2 14 6 43 8 65 3 22 8 60 12 85 3 25 8 59 10
75 1 17 7 55 13 85 9 48 14 85 26 180 2 14 6 43 10 65 3 22 8 51 10 65 2 14 6
43 10 65 3 22 7 61 9 88 4 48 21 80 39 74 7 -2 11 -328 11 -979z m462 835
c236 -122 288 -153 254 -153 -6 0 -46 18 -90 40 -44 22 -84 40 -90 40 -6 0
-89 39 -184 87 -143 71 -172 90 -168 105 2 10 6 18 9 18 2 0 123 -61 269 -137z
m-564 -78 c-2 -14 -8 -25 -13 -25 -12 0 -11 7 1 31 14 26 18 24 12 -6z m-1532
-180 c30 -3 87 -7 125 -10 39 -3 84 -7 100 -10 17 -2 50 -6 75 -9 25 -3 61 -8
80 -11 19 -3 55 -8 80 -11 43 -5 55 -7 127 -18 18 -2 42 -8 54 -11 11 -4 31
-8 42 -10 12 -2 39 -6 60 -9 21 -3 47 -11 58 -16 11 -6 24 -8 29 -5 5 3 23 -1
40 -10 17 -9 37 -14 43 -12 7 2 25 -2 40 -10 16 -8 34 -12 40 -10 7 2 28 -3
47 -11 19 -8 46 -16 60 -18 14 -2 46 -12 70 -23 24 -11 48 -17 52 -15 8 5 5
-48 -8 -146 -3 -19 -7 -69 -9 -110 -2 -41 -7 -102 -10 -135 -14 -166 -25 -521
-31 -955 -2 -217 -5 -439 -7 -493 -1 -53 2 -97 6 -97 5 0 5 -5 1 -11 -9 -16
-3 -929 12 -1569 7 -352 7 -391 -2 -399 -13 -12 -154 -62 -154 -55 0 4 -7 1
-15 -6 -8 -7 -15 -10 -15 -7 0 4 -29 -5 -65 -18 -36 -14 -65 -22 -65 -19 0 4
-7 1 -15 -6 -8 -7 -15 -10 -15 -6 0 3 -11 1 -26 -4 -14 -6 -43 -12 -66 -15
-22 -3 -44 -7 -48 -10 -12 -8 -156 -35 -270 -51 -19 -2 -48 -7 -65 -9 -368
-55 -940 -51 -1340 10 -16 3 -37 6 -45 6 -8 1 -51 8 -95 16 -76 13 -108 18
-165 27 -14 2 -47 9 -75 16 -27 6 -61 12 -75 14 -14 2 -37 8 -51 14 -15 6 -29
8 -32 6 -3 -3 -20 1 -38 9 -19 7 -39 12 -46 10 -6 -2 -26 3 -43 12 -17 9 -35
13 -40 10 -5 -3 -23 1 -39 10 -17 8 -38 15 -48 15 -10 0 -36 8 -59 17 l-42 17
4 136 c2 74 6 205 9 290 6 189 14 460 19 677 2 89 7 166 10 172 4 6 2 11 -4
11 -6 0 -8 5 -4 11 3 6 8 106 11 223 6 321 6 1765 0 1901 -11 207 -26 405 -33
417 -11 17 -11 88 -1 90 7 0 17 2 22 3 12 3 23 5 30 5 3 0 41 14 85 30 44 16
80 28 80 25 0 -2 21 2 47 10 25 8 50 12 55 9 4 -3 8 0 8 6 0 6 4 9 9 5 5 -3
27 1 48 9 39 15 104 28 136 27 9 0 17 3 17 7 0 4 10 8 23 8 12 1 40 4 62 8 22
4 51 9 65 11 14 2 69 11 123 19 94 16 122 19 282 32 39 3 71 7 73 9 5 4 642
-5 702 -10z m1892 -167 c-7 -7 -12 -8 -12 -2 0 14 12 26 19 19 2 -3 -1 -11 -7
-17z m4 -45 c-10 -10 -19 5 -10 18 6 11 8 11 12 0 2 -7 1 -15 -2 -18z m2 -53
c0 -22 -3 -40 -9 -40 -7 0 -7 24 0 73 3 21 9 2 9 -33z m1 -92 c1 -24 3 -148 4
-275 1 -128 6 -233 10 -233 5 0 5 -5 2 -11 -10 -16 -12 -79 -2 -79 4 0 4 -7
-1 -16 -5 -9 -6 -31 -2 -49 4 -18 3 -40 -2 -49 -5 -9 -5 -16 -1 -16 10 0 8
-63 -2 -79 -3 -6 -3 -11 2 -11 9 0 12 -224 16 -1295 2 -396 -1 -728 -5 -737
-6 -12 -5 -18 2 -18 6 0 8 -5 4 -11 -3 -6 -8 -255 -10 -552 -2 -298 -6 -564
-9 -592 -3 -27 -7 -77 -10 -110 -2 -33 -7 -94 -10 -135 -4 -41 -8 -95 -10
-120 -2 -25 -6 -63 -9 -85 -3 -22 -7 -67 -11 -100 -9 -90 -15 -147 -21 -180
-2 -16 -7 -46 -9 -65 -3 -19 -7 -46 -10 -60 -2 -14 -6 -41 -9 -60 -3 -19 -11
-55 -17 -80 -5 -25 -12 -56 -14 -70 -3 -24 -17 -85 -34 -160 -5 -19 -13 -47
-19 -61 -6 -15 -9 -29 -6 -31 2 -3 -3 -22 -12 -44 -10 -21 -21 -57 -26 -79 -5
-22 -13 -58 -19 -80 -6 -22 -12 -52 -14 -66 -3 -25 -22 -69 -29 -69 -5 0 5 92
19 180 2 14 6 43 9 65 4 22 8 54 11 70 2 17 7 44 10 60 3 17 6 42 8 56 2 14 7
31 12 39 5 7 12 30 16 49 4 20 12 61 19 91 19 89 23 111 35 194 3 21 7 42 10
46 3 4 7 25 10 46 3 22 8 53 11 69 3 17 7 46 10 65 5 38 10 74 18 118 4 25 8
52 22 167 7 61 12 266 19 760 11 874 13 963 19 974 4 6 2 11 -4 11 -6 0 -8 4
-5 10 9 14 17 708 20 1730 1 498 3 908 4 913 3 20 9 2 10 -35z m-4424 -532
c-2 -310 -6 -569 -9 -575 -4 -6 -2 -11 4 -11 7 0 8 -6 2 -16 -5 -9 -6 -32 -2
-50 9 -40 5 -46 -24 -33 -20 9 -21 17 -19 87 1 42 4 94 5 115 2 20 0 37 -5 37
-4 0 -5 5 -1 11 4 7 8 84 10 173 2 88 6 233 9 321 3 88 7 234 9 325 6 198 4
180 14 180 5 0 8 -254 7 -564z m-22 -732 c12 -4 14 -106 10 -747 -2 -408 -4
-941 -6 -1184 -2 -429 -3 -442 -22 -447 -10 -3 -21 -3 -23 -1 -4 4 -14 161
-13 193 1 26 2 130 1 202 0 41 2 145 5 230 6 163 13 793 15 1384 2 311 4 376
15 376 2 0 10 -3 18 -6z m138 -57 c9 -3 18 -16 21 -29 4 -22 0 -1078 -5 -1351
-1 -70 2 -127 6 -127 4 0 4 -8 -1 -17 -9 -20 -7 -543 2 -613 4 -25 8 -75 10
-113 3 -65 2 -68 -23 -74 -33 -8 -70 -8 -96 0 -18 6 -20 15 -18 109 1 57 2
146 2 198 0 52 1 154 1 225 1 72 2 506 4 966 2 460 6 842 10 847 5 8 16 7 39
-3 18 -7 39 -16 48 -18z m4100 -94 c1 -10 1 -43 0 -73 0 -30 -3 -374 -6 -765
-6 -802 -13 -1298 -18 -1335 -3 -14 -5 -28 -6 -32 0 -5 -4 -8 -9 -8 -4 0 -6
17 -4 38 9 93 19 2038 11 2046 -3 4 -36 -5 -72 -19 -37 -14 -67 -22 -67 -19 0
4 -7 1 -15 -6 -8 -7 -15 -9 -15 -4 0 5 -4 3 -8 -3 -4 -7 -19 -15 -32 -17 -14
-2 -27 -5 -30 -6 -3 -2 -8 -2 -12 -2 -3 1 -12 -6 -20 -15 -10 -13 -13 -80 -13
-320 0 -166 4 -303 8 -303 4 0 4 -8 -1 -17 -19 -43 0 -690 33 -1098 3 -38 7
-87 8 -107 1 -21 5 -38 9 -38 4 0 5 -7 2 -15 -4 -8 -10 -15 -16 -15 -5 0 -6 5
-3 10 3 6 2 10 -4 10 -6 0 -9 16 -7 36 1 19 0 37 -3 39 -3 2 -6 28 -6 59 0 31
-2 56 -5 56 -3 0 -6 17 -7 38 -1 20 -4 69 -7 107 -3 39 -7 107 -8 152 -2 46
-7 83 -11 83 -4 0 -3 8 2 19 6 10 7 21 4 25 -3 3 -8 167 -10 363 -2 197 -5
401 -6 453 -1 52 1 103 6 113 4 9 4 17 0 17 -4 0 -8 93 -7 207 l0 206 34 19
c19 10 40 18 47 18 7 0 13 5 13 12 0 6 3 8 6 5 4 -4 20 3 35 14 16 11 38 21
49 22 11 1 20 4 20 8 0 4 8 9 18 13 9 3 37 14 62 25 56 25 60 25 61 4z m-3908
-167 c30 -8 77 -26 105 -40 l51 -26 -5 -201 c-2 -110 -6 -205 -10 -210 -3 -5
0 -9 6 -9 6 0 8 -5 4 -11 -6 -11 -8 -52 -19 -529 -7 -298 -13 -462 -21 -555
-3 -38 -6 -78 -7 -87 -1 -10 -23 -29 -52 -44 -27 -15 -58 -34 -67 -42 -10 -8
-18 -12 -18 -7 0 4 -6 2 -14 -4 -11 -9 -16 -9 -22 0 -6 10 -7 259 -3 354 1 6
0 24 0 40 -1 29 7 1363 8 1378 1 9 1 9 64 -7z m3849 -28 c2 -13 2 -219 1 -458
-3 -490 -10 -1313 -12 -1318 -1 -2 -31 13 -68 34 -96 53 -115 75 -119 143 -2
31 -6 90 -9 131 -14 188 -27 1426 -16 1414 2 -2 10 1 18 7 7 6 13 8 13 5 0 -4
14 2 30 14 17 12 30 18 30 14 0 -3 7 -1 15 6 8 7 15 10 15 7 0 -3 17 0 38 8
52 19 59 18 64 -7z m-3648 -518 c-4 -371 -8 -493 -18 -508 -4 -7 -2 -12 4 -12
6 0 9 -4 6 -8 -3 -5 -8 -55 -11 -113 -14 -222 -16 -255 -16 -276 1 -12 -3 -25
-9 -28 -5 -3 -7 40 -4 107 4 108 10 328 18 709 2 97 7 182 10 188 4 6 3 11 -1
11 -5 0 -7 17 -5 38 1 20 4 78 6 127 5 105 5 106 15 80 4 -11 6 -153 5 -315z
m-40 -984 c-3 -9 -10 -16 -15 -16 -6 0 -5 9 1 21 13 24 24 20 14 -5z m-9 -138
c-3 -62 -8 -129 -11 -148 -7 -56 -12 -92 -18 -130 -6 -37 -15 -111 -21 -169
-2 -18 -8 -38 -14 -44 -11 -11 -10 27 5 153 3 25 7 65 9 90 4 59 13 135 30
255 3 22 7 51 9 65 4 36 5 40 12 40 3 0 3 -51 -1 -112z m-70 -140 c-15 -169
-19 -178 -84 -199 -20 -6 -41 -16 -48 -21 -16 -13 -22 13 -22 100 0 40 -3 77
-6 82 -7 11 45 61 57 54 4 -3 8 -1 8 4 0 4 16 14 35 22 19 8 35 17 35 22 0 4
7 8 16 8 13 0 14 -11 9 -72z m3631 43 c16 -10 43 -30 58 -44 16 -15 37 -29 47
-32 11 -4 19 -14 20 -23 3 -51 -7 -182 -15 -189 -9 -9 -142 57 -144 71 0 6 -3
54 -7 106 -4 52 -9 98 -12 102 -5 9 5 28 15 28 4 0 21 -8 38 -19z m-3656 -278
c0 -22 -32 -73 -46 -73 -7 0 -14 -7 -18 -15 -3 -8 -12 -15 -20 -15 -7 0 -17
-7 -20 -16 -10 -25 -17 -11 -22 40 -4 46 -4 46 41 67 25 12 48 25 50 30 8 13
35 -1 35 -18z m3595 8 c-3 -5 -1 -12 4 -16 12 -7 3 -35 -11 -35 -6 0 -8 7 -4
15 3 8 1 15 -4 15 -5 0 -7 7 -4 15 4 8 10 15 16 15 5 0 7 -4 3 -9z m116 -28
c27 -16 49 -34 49 -40 0 -7 5 -13 11 -13 5 0 7 -5 3 -12 -5 -7 -7 -25 -6 -40
1 -15 0 -28 -3 -28 -12 0 -125 61 -126 68 -16 101 -7 109 72 65z m107 -18 c-6
-14 -13 -23 -16 -21 -7 7 9 46 18 46 5 0 4 -11 -2 -25z m-4207 -27 c1 -7 3
-51 4 -98 4 -111 16 -342 20 -405 2 -27 6 -86 9 -130 3 -44 8 -98 11 -120 3
-22 8 -60 10 -85 5 -48 13 -118 20 -160 2 -14 6 -43 9 -65 3 -22 8 -53 10 -70
3 -16 7 -45 10 -63 3 -18 9 -47 14 -65 13 -41 26 -108 25 -124 0 -7 2 -13 6
-13 4 0 7 -8 8 -17 3 -50 9 -83 13 -83 3 0 6 -8 7 -17 2 -37 13 -92 23 -118 6
-16 13 -44 15 -64 2 -20 6 -43 8 -51 9 -39 17 -78 21 -103 3 -16 10 -44 16
-63 7 -20 10 -38 7 -41 -3 -3 -1 -16 4 -30 5 -14 12 -42 14 -62 6 -41 13 -76
15 -76 4 0 21 -100 23 -137 1 -10 5 -18 9 -18 4 0 5 -7 2 -15 -4 -8 -10 -15
-16 -15 -5 0 -7 4 -3 9 3 5 1 12 -5 16 -6 4 -8 11 -5 16 4 5 1 9 -5 9 -6 0 -9
4 -5 9 3 5 -4 33 -15 61 -11 29 -20 57 -19 63 1 7 0 19 -4 27 -9 23 -29 89
-32 108 -2 9 -4 17 -5 17 -1 0 -3 8 -5 17 -2 9 -10 39 -18 65 -17 54 -32 122
-30 141 0 6 -3 12 -9 12 -5 0 -7 4 -4 9 4 5 2 20 -3 33 -5 14 -12 42 -15 62
-4 21 -8 42 -11 46 -3 4 -7 25 -10 46 -3 22 -8 45 -11 53 -2 8 -7 30 -10 50
-3 20 -7 47 -10 61 -3 14 -9 48 -14 75 -4 28 -12 61 -17 75 -5 14 -8 40 -8 58
0 17 -2 32 -5 32 -3 0 -6 17 -7 38 -1 20 -5 55 -8 77 -3 22 -8 61 -10 88 -3
26 -7 71 -10 100 -3 28 -7 89 -8 134 -1 46 -4 83 -7 83 -3 0 -5 36 -5 80 0 44
-2 80 -5 80 -3 0 -6 37 -7 83 -1 45 -4 134 -8 197 -10 199 -11 190 15 190 11
0 21 -6 21 -12z m3989 -3 c0 -8 -4 -15 -10 -15 -5 0 -7 7 -4 15 4 8 8 15 10
15 2 0 4 -7 4 -15z m214 -20 c-4 -8 -8 -15 -10 -15 -2 0 -4 7 -4 15 0 8 4 15
10 15 5 0 7 -7 4 -15z m-3830 -52 c-2 -27 -7 -70 -9 -98 -6 -66 -14 -142 -20
-185 -2 -19 -7 -62 -9 -95 -3 -33 -8 -80 -11 -105 -2 -25 -7 -69 -10 -98 -9
-81 -19 -165 -23 -184 -1 -5 -6 -8 -10 -8 -5 0 -9 60 -10 133 0 72 -2 238 -3
367 -3 232 -3 236 19 258 12 12 27 22 32 22 6 0 13 7 16 15 4 8 10 13 14 10 5
-3 11 -1 15 5 12 20 15 9 9 -37z m3713 -15 c63 -56 74 -69 68 -77 -3 -5 -8
-56 -10 -113 -3 -56 -8 -134 -10 -173 -2 -38 -6 -117 -10 -175 -4 -58 -8 -125
-10 -150 -4 -68 -4 -70 -15 -70 -5 0 -9 10 -9 23 1 21 -6 117 -16 227 -3 30
-7 84 -10 120 -2 36 -7 92 -10 125 -3 33 -8 83 -10 110 -2 28 -7 78 -10 113
-5 53 -3 62 11 62 9 0 28 -10 41 -22z m-3337 -61 c75 -25 121 -39 143 -42 12
-1 35 -8 51 -14 16 -6 31 -9 33 -7 3 3 17 0 32 -6 14 -5 37 -11 51 -13 14 -2
45 -9 70 -15 25 -6 56 -13 70 -15 14 -2 50 -9 80 -15 71 -15 115 -22 200 -35
19 -2 49 -7 65 -9 17 -3 55 -8 85 -11 30 -3 71 -8 90 -11 19 -3 58 -7 85 -9
28 -2 86 -7 130 -10 188 -15 728 -8 845 10 19 3 55 8 80 10 89 9 127 14 151
22 13 5 39 8 57 8 17 0 32 3 32 8 0 4 4 6 9 3 5 -3 29 0 54 8 25 8 48 12 50
10 2 -2 20 2 39 10 20 9 38 13 41 10 3 -3 21 -1 41 6 19 6 46 13 61 16 14 2
55 16 91 29 35 13 64 22 64 19 0 -3 6 -2 13 3 6 4 21 9 32 10 11 2 22 8 23 13
2 6 8 8 13 5 5 -3 19 -1 31 6 12 7 39 13 60 14 34 2 38 -1 47 -29 5 -17 9 -40
9 -51 0 -40 18 -542 27 -750 5 -121 11 -292 19 -546 5 -152 4 -168 -12 -175
-9 -4 -20 -6 -24 -6 -5 1 -8 -2 -8 -7 0 -5 -7 -11 -15 -15 -8 -3 -14 -2 -14 2
1 4 1 9 0 12 -1 3 -4 34 -6 70 -2 36 -6 101 -9 145 -3 44 -8 125 -11 179 -3
55 -8 129 -11 165 -3 36 -6 94 -7 129 -1 34 -6 62 -10 62 -4 0 -3 8 2 19 6 10
8 21 5 23 -2 3 -7 43 -10 89 -2 46 -7 113 -9 149 -3 36 -7 101 -10 145 -3 44
-7 105 -9 135 -5 70 -12 87 -45 105 -24 12 -37 11 -114 -9 -48 -13 -87 -21
-87 -18 0 2 -7 -1 -15 -8 -8 -7 -15 -10 -15 -7 0 4 -18 0 -39 -8 -22 -7 -42
-11 -44 -8 -3 3 -22 0 -41 -7 -20 -6 -48 -13 -63 -15 -16 -2 -44 -6 -63 -10
-67 -12 -190 -31 -269 -40 -30 -4 -63 -9 -75 -11 -12 -2 -48 -6 -81 -8 -78 -6
-93 -12 -110 -47 -22 -41 -39 -46 -140 -43 -49 1 -205 5 -347 8 -209 4 -262 7
-287 21 -18 9 -30 19 -27 23 10 16 -21 37 -59 40 -22 2 -53 5 -70 7 -16 2 -52
7 -80 9 -68 7 -111 14 -170 27 -27 5 -59 12 -70 14 -11 2 -45 8 -75 15 -30 6
-64 13 -75 14 -11 2 -32 8 -46 14 -15 6 -29 8 -32 6 -3 -3 -21 1 -40 10 -19 8
-38 12 -41 9 -3 -4 -24 2 -46 12 -22 10 -43 15 -46 12 -4 -3 -18 0 -33 7 -29
15 -121 18 -121 4 0 -5 -4 -7 -9 -3 -15 9 -34 -35 -37 -85 -2 -25 -6 -79 -9
-120 -3 -41 -8 -111 -10 -155 -14 -253 -16 -288 -31 -500 -2 -38 -6 -110 -9
-160 -2 -49 -7 -133 -11 -185 -3 -52 -7 -124 -8 -159 -1 -41 -6 -66 -13 -68
-7 -3 -30 10 -52 28 l-39 33 5 96 c5 106 9 198 17 345 6 109 13 274 21 455 12
282 29 601 34 621 2 9 53 2 101 -14z m196 -170 c17 -9 34 -13 38 -10 3 3 24
-2 46 -12 22 -10 43 -15 46 -12 4 3 22 0 42 -9 19 -8 37 -12 40 -10 2 3 16 0
30 -5 14 -5 37 -12 51 -14 14 -3 49 -9 76 -15 28 -5 64 -12 80 -15 17 -3 41
-7 55 -10 14 -3 43 -7 65 -10 22 -3 51 -8 65 -10 78 -11 109 -15 148 -16 28
-1 42 -6 42 -15 0 -8 5 -14 10 -14 6 0 10 -7 10 -15 0 -8 9 -19 20 -25 20 -10
208 -18 588 -23 l182 -3 28 26 c15 15 32 34 37 44 7 12 26 18 65 21 62 4 100
9 290 36 192 28 223 33 258 43 9 3 33 7 52 10 19 3 54 12 77 20 22 8 43 13 46
10 2 -2 24 3 48 11 24 9 60 18 79 21 19 3 37 8 39 10 13 12 35 -47 37 -100 2
-34 6 -99 9 -146 3 -47 7 -122 8 -167 1 -46 4 -83 7 -83 3 0 6 -21 7 -48 0
-26 4 -94 7 -152 4 -58 8 -145 11 -195 3 -49 7 -117 10 -150 2 -33 7 -100 10
-150 17 -260 18 -251 -25 -260 -17 -4 -30 -11 -30 -17 0 -6 -3 -8 -7 -5 -3 4
-12 2 -20 -4 -7 -6 -13 -9 -13 -6 0 3 -36 -8 -80 -24 -44 -16 -80 -26 -80 -23
0 4 -7 1 -15 -6 -8 -7 -15 -10 -15 -6 0 3 -29 -5 -64 -18 -35 -14 -67 -22 -69
-19 -3 3 -22 0 -41 -7 -20 -6 -50 -13 -68 -16 -57 -8 -112 -15 -138 -20 -68
-11 -108 -15 -142 -16 -21 0 -38 -3 -38 -7 0 -3 -26 -7 -58 -8 -31 -1 -91 -4
-132 -7 -245 -21 -680 -21 -895 -1 -27 2 -79 7 -115 10 -86 8 -148 14 -185 20
-16 2 -48 7 -70 9 -57 8 -95 14 -135 21 -19 4 -46 9 -60 10 -14 1 -37 7 -51
13 -15 6 -29 9 -31 6 -3 -2 -21 2 -40 10 -20 9 -38 13 -40 10 -3 -2 -27 5 -53
16 -27 11 -53 19 -59 17 -6 -2 -32 6 -57 19 -26 13 -57 25 -70 28 -47 9 -90
28 -98 45 -8 15 -7 95 4 231 3 36 8 119 11 185 3 66 7 149 10 185 2 36 6 101
9 145 3 44 8 114 10 155 2 41 7 111 10 155 5 72 12 185 18 315 1 25 8 50 17
56 20 16 109 10 146 -9z m-236 -1452 c71 -36 139 -65 150 -65 12 0 35 -7 51
-16 17 -8 42 -17 57 -19 15 -2 43 -10 63 -19 20 -8 39 -13 41 -10 3 2 18 0 34
-7 16 -6 40 -12 54 -14 14 -2 61 -11 105 -19 44 -9 98 -18 120 -21 104 -13
132 -17 160 -21 59 -8 186 -18 385 -29 201 -11 537 -7 755 9 33 3 92 7 130 9
70 5 134 13 190 24 17 3 41 7 55 8 14 1 41 4 60 8 19 4 51 9 70 12 19 2 50 9
69 14 19 6 38 8 42 5 5 -3 9 0 9 6 0 6 4 9 9 5 5 -3 32 4 59 14 27 11 52 17
55 14 6 -5 61 11 117 35 19 9 38 17 43 18 4 1 9 3 12 4 3 1 10 4 15 5 6 1 13
4 18 5 4 1 10 2 15 1 4 0 7 3 7 9 0 6 3 9 8 8 10 -2 105 45 114 57 4 6 8 6 8
1 0 -5 8 -2 18 7 21 19 40 10 46 -23 2 -14 5 -27 6 -30 1 -3 3 -9 4 -15 1 -5
5 -23 9 -40 4 -16 9 -41 12 -54 2 -13 12 -47 22 -75 9 -28 16 -57 15 -63 -2
-7 1 -13 5 -13 4 0 9 -12 10 -28 2 -22 8 -57 12 -69 1 -2 2 -6 2 -10 1 -5 10
-31 20 -60 9 -28 15 -54 12 -57 -4 -3 -1 -6 6 -6 7 0 10 -4 7 -8 -3 -5 -1 -26
5 -47 6 -20 13 -47 15 -59 5 -22 -34 -116 -47 -116 -4 0 -22 -13 -39 -29 -18
-16 -44 -35 -58 -42 -15 -8 -32 -21 -39 -29 -7 -8 -13 -11 -13 -6 0 5 -7 3
-15 -4 -8 -7 -15 -9 -15 -4 0 5 -4 4 -8 -2 -4 -6 -29 -21 -57 -33 -27 -12 -58
-26 -67 -31 -30 -16 -262 -100 -290 -105 -16 -3 -49 -14 -75 -24 -27 -10 -54
-16 -60 -14 -7 3 -13 0 -13 -6 0 -6 -3 -10 -7 -9 -5 1 -29 -4 -55 -11 -34 -10
-48 -19 -52 -36 -7 -27 -37 -37 -151 -50 -27 -3 -68 -7 -90 -10 -96 -13 -135
-16 -212 -18 -46 -1 -83 -5 -83 -8 0 -3 -172 -4 -382 -3 -352 3 -469 7 -570
19 -97 11 -145 17 -168 20 -14 3 -43 7 -65 9 -22 3 -48 7 -58 9 -20 4 -38 27
-31 39 6 10 -54 40 -69 35 -7 -2 -36 6 -66 19 -29 13 -57 21 -62 19 -4 -3 -31
6 -58 20 -28 14 -60 25 -71 25 -11 0 -51 15 -88 34 -37 18 -88 41 -113 49 -65
22 -169 74 -193 96 -12 10 -43 31 -70 46 -46 27 -156 125 -139 125 4 0 2 5 -5
12 -8 8 -8 17 -1 30 6 11 8 24 6 31 -2 7 4 29 15 50 11 21 17 44 15 50 -2 7 5
31 16 55 10 24 16 46 13 49 -2 3 5 28 18 57 12 28 21 56 19 63 -2 6 5 30 17
53 12 23 19 47 17 53 -2 7 4 29 14 49 11 21 21 52 23 71 5 39 26 87 38 87 4 0
67 -29 138 -65z m50 -945 c33 -16 69 -30 80 -30 11 0 47 -13 79 -30 33 -16 74
-32 91 -35 18 -3 49 -15 71 -25 21 -11 46 -20 56 -20 25 0 103 -33 103 -44 0
-4 -8 -5 -17 -1 -10 4 -34 9 -53 12 -19 3 -47 12 -62 19 -15 8 -36 14 -48 14
-12 0 -35 7 -51 16 -17 8 -42 17 -57 19 -32 4 -262 116 -262 127 0 12 6 10 70
-22z m2980 21 c0 -5 -20 -18 -44 -30 -25 -11 -47 -25 -51 -31 -3 -6 -10 -8
-15 -5 -5 3 -11 1 -15 -5 -4 -6 -11 -8 -16 -5 -5 4 -9 1 -9 -6 0 -7 -3 -9 -7
-6 -3 4 -12 2 -20 -4 -7 -6 -13 -8 -13 -4 0 4 -7 2 -15 -5 -8 -7 -15 -9 -15
-4 0 5 -4 3 -8 -3 -4 -7 -17 -14 -27 -16 -11 -2 -27 -7 -35 -10 -31 -11 -117
-38 -140 -42 -13 -2 -39 -10 -58 -16 -47 -16 -102 -20 -102 -8 0 5 7 10 15 10
16 2 34 5 38 8 1 2 13 5 27 7 14 3 27 9 28 14 2 6 7 8 11 5 4 -2 31 5 59 15
29 11 52 17 52 14 0 -4 6 -1 13 5 8 6 17 8 20 4 4 -3 7 -1 7 6 0 7 4 10 8 7 9
-5 218 68 237 83 8 7 41 20 73 30 1 1 2 -3 2 -8z"/>
<path d="M1700 9328 c0 -5 -4 -7 -9 -3 -16 9 -41 -38 -41 -78 0 -27 7 -45 25
-62 31 -32 39 -31 65 5 21 30 35 100 20 100 -4 0 -10 8 -13 18 -5 20 -47 38
-47 20z m34 -80 c-3 -40 -18 -55 -39 -38 -18 15 -19 30 -4 64 16 34 46 16 43
-26z"/>
<path d="M3784 9283 c-10 -21 -17 -46 -16 -56 2 -31 29 -64 56 -69 21 -4 29 1
46 30 17 28 19 41 11 63 -5 15 -7 30 -4 32 5 6 -50 37 -65 37 -6 0 -18 -17
-28 -37z m64 -46 c2 -32 -1 -46 -12 -50 -17 -7 -20 -3 -36 37 -8 22 -6 30 11
47 26 26 35 19 37 -34z"/>
<path d="M2718 3373 c-19 -5 -19 -5 -23 -38 -1 -11 -6 -31 -10 -45 -16 -49
-12 -163 8 -217 56 -153 127 56 84 247 -5 23 -27 60 -35 59 -4 -1 -15 -3 -24
-6z m37 -185 c-2 -46 -5 -91 -5 -101 -2 -28 -33 -16 -36 13 -10 97 -4 205 12
232 16 25 33 -62 29 -144z"/>
</g>
</svg>
